<?xml version="1.0" encoding="UTF-8"?>
<svg version="1.2" baseProfile="tiny-ps" xmlns="http://www.w3.org/2000/svg" viewBox="0 0 512 512">
  <title>VINCIS</title>
  <rect width="512" height="512" rx="96" fill="#050505"/>
  <path d="M139 164c45-53 119-69 181-40 56 27 91 85 86 147-4 54-38 101-88 121-45 19-97 13-137-15 32 4 66-3 94-23 36-25 56-68 51-112-5-45-34-84-75-101-39-16-84-8-114 23Z" fill="#ffffff"/>
  <path d="M366 348c-45 53-119 69-181 40-56-27-91-85-86-147 4-54 38-101 88-121 45-19 97-13 137 15-32-4-66 3-94 23-36 25-56 68-51 112 5 45 34 84 75 101 39 16 84 8 114-23Z" fill="#ffffff"/>
  <path d="M184 256c0-40 32-72 72-72s72 32 72 72-32 72-72 72-72-32-72-72Zm50 0c0 12 10 22 22 22s22-10 22-22-10-22-22-22-22 10-22 22Z" fill="#050505"/>
</svg>
