<?xml version="1.0" encoding="UTF-8"?>
<svg version="1.2" baseProfile="tiny-ps" xmlns="http://www.w3.org/2000/svg" viewBox="0 0 1000 1000">
  <title>VINCIS</title>
  <path d="M180 0h640c99.41 0 180 80.59 180 180v640c0 99.41-80.59 180-180 180H180C80.59 1000 0 919.41 0 820V180C0 80.59 80.59 0 180 0Z" fill="#050505"/>
  <path d="M794.55 432.86c-2.39-82.13-114.42-123.63-256.32-131.65-2.03-.12-4.07-.23-6.11-.33-.9-.08-1.81-.16-2.73-.24-.19-.01-.39-.03-.59-.05.08.05.15.1.22.15 1.55.98 3.07 1.98 4.57 2.99 51.3 38.54 80.63 90.17 85.72 143.93 3.93 41.48-7.82 78.89-32.63 109.81-.33.41-.66.82-1 1.23-6.7 8.07-14.22 15.71-22.51 22.88-.05.04-.11.09-.17.14-18.28 15.57-40.63 28.79-66.55 39.2-2.61 1.05-5.27 2.07-7.96 3.07 1.01.04 2.02.08 3.03.12.45.02.89.03 1.34.05 9.12.32 18.37.4 27.72.23 165.45-3.06 276.54-103.05 273.97-191.53Z" fill="#ffffff"/>
  <path d="M594.01 630.73c-48.25 16.86-103.14 15.65-153.56-7.63-76.62-35.37-121.16-111.66-119-190.07.06-2.4.17-4.8.32-7.2.2-2.13.43-4.26.69-6.39-.07.15-.15.31-.22.46-7.69 16.32-14.53 33.6-20.33 51.7-45.27 141.3-10.28 278.82 78.16 307.16 76.18 24.41 167.17-40.16 219.87-148.84.27-.56.54-1.11.81-1.68-2.23.88-4.48 1.71-6.74 2.49Z" fill="#ffffff"/>
  <path d="M484.31 276.44c-85.06-75.94-159.79-115.13-216.54-83.78-46.17 25.51-77.37 88.33-40.3 213.75 10.88 36.83 26.24 74.36 44.9 110.27-.01 1.25-.02 2.5-.02 3.76.03-1.18.08-2.37.13-3.55.59 1.15 1.19 2.3 1.8 3.44-.04-.48-.06-.96-.08-1.44-.4-7.26-.43-14.66-.13-22.12 7.75-66.9 39.66-132.41 90.43-158.41 63.6-32.57 141.62-18.45 216.47 48.62 3.41 3.05 6.81 6.21 10.19 9.48.31.29.62.59.93.9.1.09.2.19.31.3-31.28-44.91-66.32-83.93-108.09-121.22Z" fill="#ffffff"/>
  <path d="M520.58 624.39c-9.35.17-18.6.09-27.72-.23-.45-.02-.89-.03-1.34-.05-1.01-.04-2.02-.08-3.03-.12 2.69-1 5.35-2.02 7.96-3.07.92 0 1.84-.01 2.75-.01.64 0 1.28 0 1.92 0 181.19-1.42 295.49-103.2 288.24-191.68-5.93-72.2-110.23-114.3-250.71-127.73-2.17-.22-4.34-.42-6.53-.61 2.04.1 4.08.21 6.11.33 141.9 8.02 253.93 49.52 256.32 131.65 2.57 88.48-108.52 188.47-273.97 191.53Z" fill="#d9d9d9"/>
  <path d="M599.94 629.92c-52.7 108.68-143.69 173.25-219.87 148.84-88.44-28.34-123.43-165.86-78.16-307.16 5.8-18.1 12.64-35.38 20.33-51.7.07-.15.15-.31.22-.46-.26 2.13-.49 4.26-.69 6.39-.15 2.4-.26 4.8-.32 7.2-.08.2-.17.4-.26.6-4.54 11.01-8.72 22.39-12.48 34.12-45.27 141.31-12.32 278.17 73.6 305.7 71.72 22.98 157.69-37.49 210.48-140.3 2.4-1.03 4.79-2.1 7.15-3.23Z" fill="#d9d9d9"/>
  <path d="M580.97 386.98c-74.85-67.07-152.87-81.19-216.47-48.62-50.77 26-82.68 91.51-90.43 158.41-.3 7.46-.27 14.86.13 22.12.02.48.04.96.08 1.44-.61-1.14-1.21-2.29-1.8-3.44-.05 1.18-.1 2.37-.13 3.55 0-1.26.01-2.51.02-3.76.01-.45.01-.89.02-1.33.2-10.93 1.09-21.95 2.67-32.88 9.03-62.64 40.3-122.61 88.8-148.68 63.17-33.95 150.37-16.06 217.11 53.19Z" fill="#d9d9d9"/>
</svg>
