<svg xmlns="http://www.w3.org/2000/svg" viewBox="0 0 48 48" width="144" height="144" role="img" aria-label="YouTube">
  <rect width="48" height="48" rx="12" fill="#FFFFFF"/>
  <path fill="#FF0000" d="M39.8 17.2c-.4-1.5-1.6-2.7-3.1-3.1C34 13.4 24 13.4 24 13.4s-10 0-12.7.7c-1.5.4-2.7 1.6-3.1 3.1-.7 2.7-.7 6.8-.7 6.8s0 4.1.7 6.8c.4 1.5 1.6 2.7 3.1 3.1 2.7.7 12.7.7 12.7.7s10 0 12.7-.7c1.5-.4 2.7-1.6 3.1-3.1.7-2.7.7-6.8.7-6.8s0-4.1-.7-6.8z"/>
  <path fill="#FFFFFF" d="M20.8 29.3V18.7L30 24l-9.2 5.3z"/>
</svg>